Coordinates
version=1
nRows=12
nColumns=24
inDegrees=yes

Units are S.I. units (second, meters, Newtons, ...)
Angles are in degrees.

endheader
time	pelvis_tilt	pelvis_list	pelvis_rotation	pelvis_tx	pelvis_ty	pelvis_tz	hip_flexion_r	hip_adduction_r	hip_rotation_r	knee_angle_r	ankle_angle_r	subtalar_angle_r	mtp_angle_r	hip_flexion_l	hip_adduction_l	hip_rotation_l	knee_angle_l	ankle_angle_l	subtalar_angle_l	mtp_angle_l	lumbar_extension	lumbar_bending	lumbar_rotation
      4.39500000	    -18.16821377	      2.56527550	    -10.46819710	     -1.36085073	     -0.04457890	     -0.34323241	      0.84539719	     -0.85704821	      1.47148396	    -19.12010825	      9.10192627	      0.65681852	      2.25109804	     45.93576689	     -5.69978193	    -18.74865456	    -14.81665994	     -3.61859100	      4.75864918	     23.24698914	     20.51167563	     -0.90325524	     -2.49698737
      4.40000000	    -18.14145344	      2.84935167	    -10.45467228	     -1.35271155	     -0.04532318	     -0.34377616	      0.80464927	     -1.32059190	      1.52094328	    -19.90807574	      8.38222497	      0.66239913	      2.51424298	     45.99939249	     -5.42470227	    -18.64243985	    -15.62026793	     -4.53764491	      3.88148666	     23.13599453	     20.70037330	     -1.19454618	     -2.45847985
      4.40500000	    -18.11306769	      3.07462530	    -10.35456617	     -1.34461306	     -0.04606257	     -0.34455870	      0.79647805	     -1.75489232	      1.31862345	    -20.75317581	      7.59401589	      0.79802751	      3.08264921	     46.11774329	     -5.10991573	    -18.29258198	    -16.52612623	     -5.54153394	      2.70846844	     22.96814958	     20.85620551	     -1.44489594	     -2.46823559
      4.41000000	    -18.10248190	      3.36973732	    -10.29399112	     -1.33644259	     -0.04669814	     -0.34524210	      0.87115496	     -2.24036634	      1.23994189	    -21.66844155	      6.67414794	      0.76296487	      3.64243316	     46.23782260	     -4.76702687	    -17.96117130	    -17.44142225	     -6.55176070	      1.55497969	     22.64898651	     21.05952253	     -1.75395219	     -2.45466127
      4.41500000	    -18.11542644	      3.65066231	    -10.15467127	     -1.32821149	     -0.04730595	     -0.34609340	      0.99957911	     -2.73020266	      0.99958205	    -22.61984793	      5.62212560	      0.76299670	      4.50234763	     46.41589929	     -4.36025568	    -17.47269849	    -18.42785462	     -7.50596172	      0.32452921	     22.10294893	     21.28770891	     -2.06616713	     -2.52833646
      4.42000000	    -18.15636395	      3.96227323	     -9.93130046	     -1.31988329	     -0.04786852	     -0.34704044	      1.17798534	     -3.26041395	      0.66733435	    -23.57250931	      4.41389761	      0.66297587	      5.97315540	     46.64894326	     -3.86105982	    -16.91943018	    -19.48305588	     -8.35130020	     -0.80426097	     21.12491111	     21.55941137	     -2.43834488	     -2.69999347
      4.42500000	    -18.12935687	      4.27258273	     -9.85011364	     -1.31170204	     -0.04826848	     -0.34787252	      1.41751534	     -3.78405174	      0.48917550	    -24.70361099	      3.09709740	      0.47247297	      6.95371282	     46.77767591	     -3.41636307	    -16.23547290	    -20.51250840	     -8.98930439	     -2.03066721	     20.19536029	     21.74111536	     -2.75919085	     -2.62518843
      4.43000000	    -18.16072719	      4.64191024	     -9.59342890	     -1.30325855	     -0.04868089	     -0.34887798	      1.70299348	     -4.39587920	      0.05448878	    -25.77112888	      1.54833580	      0.11796226	      9.15207037	     46.99529164	     -2.80120659	    -15.56157037	    -21.63983962	     -9.35438618	     -2.86495588	     18.40970060	     22.02646313	     -3.20165283	     -2.79041060
      4.43500000	    -18.12113957	      4.97336842	     -9.42885967	     -1.29492525	     -0.04891777	     -0.34985887	      1.99839351	     -4.96994733	     -0.22389239	    -26.94309779	     -0.13955636	     -0.25250705	     10.86155984	     47.11186032	     -2.23940193	    -14.89593834	    -22.73590131	     -9.57388137	     -3.86803444	     16.86523619	     22.21433102	     -3.57293965	     -2.84987718
      4.44000000	    -18.06700243	      5.26916832	     -9.24479109	     -1.28684302	     -0.04915660	     -0.35094591	      2.39105274	     -5.52423266	     -0.55900189	    -28.29467681	     -1.83890562	     -0.55918498	     12.27832279	     47.23576782	     -1.66985737	    -14.18388715	    -23.85222974	     -9.69658721	     -4.89818451	     15.43594823	     22.32677691	     -3.91656457	     -2.96550027
      4.44500000	    -18.01067181	      5.62107364	     -9.05104388	     -1.27844038	     -0.04928492	     -0.35200639	      2.77449125	     -6.14341677	     -0.87529470	    -29.56373913	     -3.83024205	     -1.10660536	     14.37776343	     47.28795820	     -1.02812966	    -13.54071539	    -24.93761139	     -9.43451580	     -5.60022659	     13.47430795	     22.50602368	     -4.31443697	     -3.02040494
      4.45000000	    -17.87265038	      5.95704172	     -8.94152290	     -1.27026627	     -0.04927274	     -0.35295541	      3.17418948	     -6.73101435	     -1.01318358	    -30.93277180	     -5.91586289	     -1.79652434	     16.39749097	     47.22026102	     -0.44291030	    -12.97415014	    -25.97169627	     -9.03610376	     -6.19378093	     11.69068007	     22.56140740	     -4.68329257	     -2.97995259
